<svg width="48" height="54" viewBox="0 0 48 54" fill="none" xmlns="http://www.w3.org/2000/svg">
<path d="M47.6113 28.051L24.1844 40.9001C24.0282 40.9863 23.8411 40.9863 23.685 40.9001L0.25802 28.051C0.142512 27.9876 0.000976562 28.0706 0.000976562 28.2023V31.6171C0.000976562 31.6806 0.0351389 31.7391 0.0904524 31.7684L23.8509 44.8029C23.903 44.8306 23.9648 44.8306 24.0168 44.8029L47.7773 31.7684C47.8326 31.7375 47.8668 31.679 47.8668 31.6171V28.2023C47.8668 28.0706 47.7252 27.9876 47.6097 28.051H47.6113Z" fill="url(#paint0_linear_76_962)"/>
<path d="M47.6113 36.8801L24.1844 49.7308C24.0282 49.817 23.8411 49.817 23.685 49.7308L0.25802 36.8801C0.142512 36.8167 0.000976562 36.8997 0.000976562 37.0314V40.4479C0.000976562 40.5113 0.0351389 40.5699 0.0904524 40.5992L23.8509 53.632C23.903 53.6597 23.9648 53.6597 24.0168 53.632L47.7773 40.5992C47.8326 40.5683 47.8668 40.5113 47.8668 40.4479V37.0314C47.8668 36.8997 47.7252 36.8167 47.6097 36.8801H47.6113Z" fill="url(#paint1_linear_76_962)"/>
<path d="M44.4643 11.4959L41.3505 13.2025C41.2952 13.2334 41.235 13.2334 41.1846 13.2025L24.213 3.91954C24.0569 3.83332 23.8698 3.83332 23.7136 3.91954L19.1047 6.43793L18.4588 6.79585L6.19219 13.5457C6.19219 13.6108 6.2231 13.6824 6.28818 13.7165L6.31909 13.7361H6.32397L15.8753 18.9665L23.7152 23.2516C23.8714 23.3379 24.0585 23.3379 24.2147 23.2468L32.2303 18.8103C32.2807 18.7794 32.3458 18.7794 32.3962 18.8103L35.567 20.6031L35.6223 20.6389L35.632 20.6438C35.6971 20.6796 35.6971 20.7707 35.632 20.8048L24.0471 27.1496C23.9967 27.1756 23.9316 27.1756 23.8812 27.1496L12.2051 20.7593L2.65375 15.5338L2.62284 15.5191V15.5142L2.57729 15.4947L0.0930575 14.1363C0.0377439 14.1054 0.00195312 14.0452 0.00195312 13.9801V13.1878C0.00195312 13.1276 0.0377439 13.0674 0.0930575 13.0365L2.65213 11.6374L15.4133 4.65163C15.4133 4.65163 15.4279 4.64675 15.4328 4.64187L23.8779 0.0231829C23.9283 -0.00772763 23.9934 -0.00772763 24.0438 0.0231829L44.4627 11.1949C44.5782 11.26 44.5782 11.4324 44.4627 11.4975L44.4643 11.4959Z" fill="url(#paint2_linear_76_962)"/>
<path d="M38.467 24.3856L41.4686 22.6318C41.5222 22.6009 41.5548 22.544 41.5548 22.4822V21.3352C41.5548 21.2734 41.5206 21.2165 41.4669 21.1856L38.9323 19.7442H38.9274L38.8981 19.7246L35.0863 17.5576L35.0571 17.5414H35.0522L31.0794 15.28C31.0257 15.2491 30.9606 15.2491 30.9085 15.28L28.1396 16.8532C28.0225 16.9199 28.0225 17.0875 28.1396 17.1542L31.7122 19.1861L31.7854 19.2252H31.7887L35.5581 21.3743L35.6297 21.4133H35.633L38.127 22.8368C38.2897 22.9296 38.3889 23.102 38.3889 23.2875V24.3417C38.3889 24.3807 38.4312 24.4051 38.4654 24.3856H38.467Z" fill="url(#paint3_linear_76_962)"/>
<path d="M23.8158 32.1456L23.78 32.1245L0.257048 19.2234C0.14154 19.16 0 19.2445 0 19.3747V22.7895C0 22.8529 0.0341673 22.9115 0.0894808 22.9408L20.1081 33.9238L20.1504 33.9449H20.152L23.8499 35.9753C23.902 36.0029 23.9638 36.0029 24.0159 35.9753L47.7763 22.9408C47.8316 22.9099 47.8658 22.8513 47.8658 22.7895V19.3747C47.8658 19.2429 47.7242 19.16 47.6087 19.2234L24.0468 32.1489C23.9736 32.1896 23.8857 32.1879 23.8141 32.1456" fill="url(#paint4_linear_76_962)"/>
<defs>
<linearGradient id="paint0_linear_76_962" x1="23.8444" y1="65.1046" x2="23.9729" y2="15.2378" gradientUnits="userSpaceOnUse">
<stop stop-color="#007200"/>
<stop offset="0.5" stop-color="#CCFF33"/>
<stop offset="1" stop-color="#38B000"/>
</linearGradient>
<linearGradient id="paint1_linear_76_962" x1="23.8444" y1="73.9354" x2="23.9729" y2="24.0669" gradientUnits="userSpaceOnUse">
<stop stop-color="#007200"/>
<stop offset="0.5" stop-color="#CCFF33"/>
<stop offset="1" stop-color="#38B000"/>
</linearGradient>
<linearGradient id="paint2_linear_76_962" x1="32.2644" y1="-7.11552" x2="15.7663" y2="24.8964" gradientUnits="userSpaceOnUse">
<stop stop-color="#007200"/>
<stop offset="0.5" stop-color="#CCFF33"/>
<stop offset="1" stop-color="#38B000"/>
</linearGradient>
<linearGradient id="paint3_linear_76_962" x1="34.7642" y1="35.3507" x2="34.8326" y2="8.38535" gradientUnits="userSpaceOnUse">
<stop stop-color="#007200"/>
<stop offset="0.5" stop-color="#CCFF33"/>
<stop offset="1" stop-color="#38B000"/>
</linearGradient>
<linearGradient id="paint4_linear_76_962" x1="23.845" y1="56.2786" x2="23.9736" y2="6.4118" gradientUnits="userSpaceOnUse">
<stop stop-color="#007200"/>
<stop offset="0.5" stop-color="#CCFF33"/>
<stop offset="1" stop-color="#38B000"/>
</linearGradient>
</defs>
</svg>
